<?xml version="1.0" encoding="utf-8"?>
<!-- Generator: Adobe Illustrator 24.3.0, SVG Export Plug-In . SVG Version: 6.00 Build 0)  -->
<svg version="1.1" id="Layer_1" xmlns="http://www.w3.org/2000/svg" xmlns:xlink="http://www.w3.org/1999/xlink" x="0px" y="0px"
	 viewBox="0 0 512 512" style="enable-background:new 0 0 512 512;" xml:space="preserve">
<style type="text/css">
	.st0{fill:#FFFFFF;}
</style>
<g>
	<path class="st0" d="M245.1,458.7c0-3.9-1.2-5.9-5.4-5.9c-3.5,0-7.1-0.7-10.5-1.3c-41.7-7.5-76.8-27-103.8-59.7
		c-33.9-41-46.6-88.1-37.9-140.6c6.8-40.9,26.8-74.6,57.9-102c21.4-18.8,45.9-31,74.5-36.7c0.6,2,1.2,3.5,1.5,5
		c2.3,13.6,4.3,27.3,6.8,40.8c0.5,2.7,2,6.5,4,7.2c1.9,0.6,5.5-1.6,7.4-3.5c29.7-29.5,59.3-59.1,89-88.7c7.3-7.3,6.5-11.9-2.8-16.5
		c-31-15.2-62.1-30.4-93.1-45.6c-7.2-3.5-14.3-7.1-21.6-10.4c-5.2-2.4-7.8-0.5-7.6,5.2c0,1.4,0.3,2.8,0.5,4.2
		c2,12.4,3.6,24.9,6.1,37.2c1,5.1-0.4,6.7-5.1,7.9c-54.3,13.7-99.2,42-133.2,86.8c-39,51.4-54.7,109.3-44.6,173.1
		C36.5,374.6,66.1,423,112.5,461c37,30.3,80,46.3,127.5,50.7c3.9,0.4,5.5-0.8,5.5-4.8C245,491,245,474.8,245.1,458.7z"/>
	<path class="st0" d="M305.2,447.3c-10.1,1.7-20.1,3.9-30.2,5.5c-3,0.5-4.4,1.4-4.4,4.6c0,16.7,0,33.3-0.1,50c0,3.9,1.7,5,5.3,4.5
		c7.9-1.1,15.9-1.7,23.6-3.2c10.5-2.1,20.9-4.9,32.3-7.7c-7.6-18.4-14.6-35.4-21.8-52.3C309.6,447.6,306.8,447.1,305.2,447.3z"/>
	<path class="st0" d="M363.1,418.3c-6.9,4.3-13.6,9-20.5,13.3c-2.9,1.8-3.9,3.3-2.4,6.7c4.5,10.2,8.6,20.6,12.9,30.9
		c2.6,6.2,5.1,12.3,7.9,18.9c17.1-8.5,32.3-18.3,46.8-31c-13.5-13.4-26.3-26.4-39.4-39.1C367.5,417.2,364.5,417.5,363.1,418.3z"/>
	<path class="st0" d="M410.8,367.7c-1.1-0.4-3.6,0.7-4.4,1.9c-3.9,5.3-7.1,11-11.1,16.2c-2.2,2.9-1.5,4.5,0.7,6.6
		c5.7,5.5,11.4,11.2,16.9,16.9c6.9,7.1,13.7,14.2,21.8,22.6c10-14.6,19.2-28.1,28.6-41.9c-1.6-1.1-2-1.4-2.5-1.6
		C444.1,381.4,427.5,374.4,410.8,367.7z"/>
	<path class="st0" d="M483.3,305c-16.5,0.1-32.9,0.2-49.4-0.1c-4-0.1-5.3,1.7-5.8,5.1c-0.6,3.7-1.2,7.3-2.2,10.9
		c-1.1,3.9-0.3,5.9,3.8,7.5c14.2,5.5,28.1,11.6,42.2,17.4c2.2,0.9,4.5,1.7,7.2,2.7c0.7-1.9,1.4-3.3,1.7-4.8
		c2.4-11.2,4.7-22.5,7.1-33.7C488.6,306.1,486.9,305,483.3,305z"/>
	<path class="st0" d="M427.3,247.3c2.5,9,2.1,9.1,11.6,9c1.6,0,3.2,0,4.8,0c13.1,0,26.2,0,39.4,0c2.2,0,5.4,0.5,4.8-3.1
		c-1.9-11.5-4.1-22.8-6.3-35c-2.4,0.7-3.2,0.9-4,1.3c-15.1,6.2-30.1,12.6-45.3,18.5C427.4,239.8,425.8,242,427.3,247.3z"/>
	<path class="st0" d="M413.1,190.9c7.9-2.7,15.6-5.8,23.3-8.8c8.9-3.4,17.8-6.7,28.1-10.6c-6.2-9.1-11.8-17.3-17.6-25.8
		c-1.5,1.3-2.6,2.2-3.6,3.2c-11.5,11.5-23.1,23.1-34.6,34.6c-2,2-4.8,4.2-1.9,7C408,191.6,411.2,191.5,413.1,190.9z"/>
	<path class="st0" d="M213.4,361.9V212.3h-20.2c-9.1,9.5-23.5,17.7-36.7,20.5v21.5c7.7-0.9,21.2-4.8,28.3-8.7v116.3L213.4,361.9
		L213.4,361.9z"/>
	<path class="st0" d="M300.8,210c-42.1,0-56.2,37.3-56.2,77.3c0,40.4,12.8,77.3,55.5,77.3c43.4,0,55.6-38.7,55.6-78.3
		C355.7,245.4,341.9,210,300.8,210z M300.4,341.8c-22.9,0-26.6-27-26.6-54.8c0-32.5,5.6-54.3,27-54.3c21.5,0,25.5,24.8,25.5,53.7
		C326.4,316.4,323,341.8,300.4,341.8z"/>
</g>
</svg>
