<?xml version="1.0" encoding="utf-8"?>
<!-- Generator: Adobe Illustrator 24.3.0, SVG Export Plug-In . SVG Version: 6.00 Build 0)  -->
<svg version="1.1" id="Layer_1" xmlns="http://www.w3.org/2000/svg" xmlns:xlink="http://www.w3.org/1999/xlink" x="0px" y="0px"
	 viewBox="0 0 512 512" class="Tplayer_seekable_btn" xml:space="preserve">
<style type="text/css">
	.st0{fill:#FFFFFF;}
</style>
<g>
	<path class="st0" d="M266.8,506.9c0,4,1.6,5.2,5.5,4.8c47.5-4.4,90.5-20.4,127.5-50.7c46.4-38,76-86.4,85.3-145.8
		c10.1-63.8-5.6-121.7-44.6-173.1c-34-44.8-78.9-73.1-133.2-86.8c-4.7-1.2-6.1-2.8-5.1-7.9c2.5-12.3,4.1-24.8,6.1-37.2
		c0.2-1.4,0.5-2.8,0.5-4.2c0.2-5.7-2.4-7.6-7.6-5.2c-7.3,3.3-14.4,6.9-21.6,10.4c-31,15.2-62.1,30.4-93.1,45.6
		c-9.3,4.6-10.1,9.2-2.8,16.5c29.7,29.6,59.3,59.2,89,88.7c1.9,1.9,5.5,4.1,7.4,3.5c2-0.7,3.5-4.5,4-7.2c2.5-13.5,4.5-27.2,6.8-40.8
		c0.3-1.5,0.9-3,1.5-5c28.6,5.7,53.1,17.9,74.5,36.7c31.1,27.4,51.1,61.1,57.9,102c8.7,52.5-4,99.6-37.9,140.6
		c-27,32.7-62.1,52.2-103.8,59.7c-3.4,0.6-7,1.3-10.5,1.3c-4.2,0-5.4,2-5.4,5.9C267.3,474.8,267.3,491,266.8,506.9z"/>
	<path class="st0" d="M202.4,448.7c-7.2,16.9-14.2,33.9-21.8,52.3c11.4,2.8,21.8,5.6,32.3,7.7c7.7,1.5,15.7,2.1,23.6,3.2
		c3.6,0.5,5.3-0.6,5.3-4.5c-0.1-16.7-0.1-33.3-0.1-50c0-3.2-1.4-4.1-4.4-4.6c-10.1-1.6-20.1-3.8-30.2-5.5
		C205.5,447.1,202.7,447.6,202.4,448.7z"/>
	<path class="st0" d="M143.9,418c-13.1,12.7-25.9,25.7-39.4,39.1c14.5,12.7,29.7,22.5,46.8,31c2.8-6.6,5.3-12.7,7.9-18.9
		c4.3-10.3,8.4-20.7,12.9-30.9c1.5-3.4,0.5-4.9-2.4-6.7c-6.9-4.3-13.6-9-20.5-13.3C147.8,417.5,144.8,417.2,143.9,418z"/>
	<path class="st0" d="M51.5,388.4c-0.5,0.2-0.9,0.5-2.5,1.6c9.4,13.8,18.6,27.3,28.6,41.9c8.1-8.4,14.9-15.5,21.8-22.6
		c5.5-5.7,11.2-11.4,16.9-16.9c2.2-2.1,2.9-3.7,0.7-6.6c-4-5.2-7.2-10.9-11.1-16.2c-0.8-1.2-3.3-2.3-4.4-1.9
		C84.8,374.4,68.2,381.4,51.5,388.4z"/>
	<path class="st0" d="M24.4,310c2.4,11.2,4.7,22.5,7.1,33.7c0.3,1.5,1,2.9,1.7,4.8c2.7-1,5-1.8,7.2-2.7c14.1-5.8,28-11.9,42.2-17.4
		c4.1-1.6,4.9-3.6,3.8-7.5c-1-3.6-1.6-7.2-2.2-10.9c-0.5-3.4-1.8-5.2-5.8-5.1c-16.5,0.3-32.9,0.2-49.4,0.1
		C25.4,305,23.7,306.1,24.4,310z"/>
	<path class="st0" d="M80,238c-15.2-5.9-30.2-12.3-45.3-18.5c-0.8-0.4-1.6-0.6-4-1.3c-2.2,12.2-4.4,23.5-6.3,35
		c-0.6,3.6,2.6,3.1,4.8,3.1c13.2,0,26.3,0,39.4,0c1.6,0,3.2,0,4.8,0c9.5,0.1,9.1,0,11.6-9C86.5,242,84.9,239.8,80,238z"/>
	<path class="st0" d="M105.5,190.5c2.9-2.8,0.1-5-1.9-7C92.1,172,80.5,160.4,69,148.9c-1-1-2.1-1.9-3.6-3.2
		c-5.8,8.5-11.4,16.7-17.6,25.8c10.3,3.9,19.2,7.2,28.1,10.6c7.7,3,15.4,6.1,23.3,8.8C101.1,191.5,104.3,191.6,105.5,190.5z"/>
	<path class="st0" d="M213.4,361.9V212.3h-20.2c-9.1,9.5-23.5,17.7-36.7,20.5v21.5c7.7-0.9,21.2-4.8,28.3-8.7v116.3L213.4,361.9
		L213.4,361.9z"/>
	<path class="st0" d="M300.8,210c-42.1,0-56.2,37.3-56.2,77.3c0,40.4,12.8,77.3,55.5,77.3c43.4,0,55.6-38.7,55.6-78.3
		C355.7,245.4,341.9,210,300.8,210z M300.4,341.8c-22.9,0-26.6-27-26.6-54.8c0-32.5,5.6-54.3,27-54.3c21.5,0,25.5,24.8,25.5,53.7
		C326.4,316.4,323,341.8,300.4,341.8z"/>
</g>
</svg>
